<?xml version="1.0" encoding="UTF-8" standalone="no"?>
<svg
   viewBox="0 0 128 128"
   version="1.1"
   id="svg4"
   sodipodi:docname="rust-bg.svg"
   inkscape:version="1.1.2 (0a00cf5339, 2022-02-04)"
   xmlns:inkscape="http://www.inkscape.org/namespaces/inkscape"
   xmlns:sodipodi="http://sodipodi.sourceforge.net/DTD/sodipodi-0.dtd"
   xmlns="http://www.w3.org/2000/svg"
   xmlns:svg="http://www.w3.org/2000/svg">
  <defs
     id="defs8" />
  <sodipodi:namedview
     id="namedview6"
     pagecolor="#ffffff"
     bordercolor="#666666"
     borderopacity="1.0"
     inkscape:pageshadow="2"
     inkscape:pageopacity="0.0"
     inkscape:pagecheckerboard="0"
     showgrid="false"
     inkscape:zoom="6.109375"
     inkscape:cx="50.332481"
     inkscape:cy="63.918159"
     inkscape:window-width="1850"
     inkscape:window-height="1016"
     inkscape:window-x="0"
     inkscape:window-y="0"
     inkscape:window-maximized="1"
     inkscape:current-layer="svg4" />
  <rect
     style="opacity:1;fill:#ffffff;fill-opacity:1"
     id="rect7002"
     width="128.22699"
     height="128.00064"
     x="0.1342711"
     y="0.16432226" />
  <path
     d="M 62.96,0.242 C 62.728,0.377 61.757,1.77 60.8,3.339 58.4,7.279 58.374,7.281 55.15,3.889 53.052,1.681 52.545,1.277 51.87,1.282 c -0.44,0.002 -0.995,0.152 -1.235,0.332 -0.24,0.18 -0.916,1.612 -1.504,3.183 -1.346,3.6 -1.41,3.715 -2.156,3.86 -0.46,0.086 -1.343,-0.407 -3.463,-1.929 -1.565,-1.125 -3.1,-2.045 -3.411,-2.045 -1.291,0 -1.655,0.706 -2.27,4.4 -0.78,4.697 -0.754,4.681 -4.988,2.758 -1.71,-0.776 -3.33,-1.41 -3.603,-1.41 -0.274,0 -0.792,0.293 -1.15,0.652 -0.652,0.652 -0.653,0.655 -0.475,4.246 l 0.178,3.595 -0.68,0.364 c -0.602,0.322 -1.017,0.283 -3.684,-0.348 -3.48,-0.822 -4.216,-0.8 -4.92,0.15 l -0.516,0.693 0.692,2.964 c 0.38,1.63 0.745,3.2 0.814,3.487 0.067,0.287 -0.05,0.746 -0.26,1.02 -0.348,0.448 -0.717,0.49 -3.94,0.44 -5.452,-0.086 -5.761,0.382 -3.51,5.3 0.718,1.56 1.305,2.98 1.305,3.15 0,0.898 -0.717,1.224 -3.794,1.727 -1.722,0.28 -3.218,0.51 -3.326,0.51 -0.107,0 -0.43,0.235 -0.717,0.522 -0.937,0.936 -0.671,1.816 1.453,4.814 2.646,3.735 2.642,3.75 -1.73,5.421 -4.971,1.902 -5.072,2.37 -1.287,5.96 3.525,3.344 3.53,3.295 -0.461,5.804 -3.024,1.898 -3.07,1.944 -3.147,2.974 -0.093,1.253 -0.071,1.275 3.538,3.48 3.57,2.18 3.57,2.246 0.067,5.56 -3.768,3.564 -3.652,4.084 1.323,5.961 4.347,1.64 4.353,1.66 1.702,5.394 -1.502,2.117 -1.981,3 -1.981,3.653 0,1.223 0.637,1.535 4.44,2.174 3.206,0.54 3.92,0.857 3.92,1.741 0,0.182 -0.588,1.612 -1.307,3.177 -2.236,4.87 -1.981,5.275 3.31,5.275 4.93,0 4.799,-0.15 3.737,4.294 -0.8,3.35 -0.813,3.992 -0.088,4.715 0.554,0.556 1.6,0.494 4.87,-0.289 2.499,-0.596 2.937,-0.637 3.516,-0.328 l 0.66,0.354 -0.177,3.594 c -0.178,3.593 -0.177,3.595 0.475,4.248 0.358,0.36 0.884,0.652 1.165,0.652 0.282,0 1.903,-0.63 3.604,-1.404 4.22,-1.916 4.194,-1.932 4.973,2.75 0.617,3.711 0.977,4.4 2.294,4.4 0.327,0 1.83,-0.88 3.34,-1.958 2.654,-1.893 3.342,-2.19 4.049,-1.74 0.182,0.115 0.89,1.67 1.572,3.455 1.003,2.625 1.37,3.31 1.929,3.576 1.062,0.51 1.72,0.1 4.218,-2.62 3.016,-3.286 3.14,-3.27 5.602,0.72 2.72,4.406 3.424,4.396 6.212,-0.089 2.402,-3.864 2.374,-3.862 5.621,-0.47 2.157,2.25 2.616,2.61 3.343,2.61 0.464,0 1.019,-0.175 1.23,-0.388 0.214,-0.213 0.92,-1.786 1.568,-3.496 0.649,-1.71 1.321,-3.2 1.495,-3.31 0.687,-0.436 1.398,-0.13 4.048,1.752 1.56,1.108 3.028,1.96 3.377,1.96 1.296,0 1.764,-0.92 2.302,-4.535 0.46,-3.082 0.554,-3.378 1.16,-3.685 0.596,-0.302 0.954,-0.2 3.75,1.07 1.701,0.77 3.323,1.402 3.604,1.402 0.282,0 0.816,-0.302 1.184,-0.672 l 0.672,-0.67 -0.184,-3.448 c -0.177,-3.29 -0.16,-3.468 0.364,-3.943 0.54,-0.488 0.596,-0.486 3.615,0.204 3.656,0.835 4.338,0.857 5.025,0.17 0.671,-0.67 0.664,-0.818 -0.254,-4.69 -1.03,-4.346 -1.168,-4.19 3.78,-4.19 3.374,0 3.75,-0.049 4.18,-0.523 0.718,-0.793 0.547,-1.702 -0.896,-4.779 -0.729,-1.55 -1.32,-2.96 -1.315,-3.135 0.024,-0.914 0.743,-1.227 4.065,-1.767 2.033,-0.329 3.553,-0.71 3.829,-0.96 0.923,-0.833 0.584,-1.918 -1.523,-4.873 -2.642,-3.703 -2.63,-3.738 1.599,-5.297 5.064,-1.866 5.209,-2.488 1.419,-6.09 -3.51,-3.335 -3.512,-3.317 0.333,-5.677 4.648,-2.853 4.655,-3.496 0.082,-6.335 -3.933,-2.44 -3.93,-2.406 -0.405,-5.753 3.78,-3.593 3.678,-4.063 -1.295,-5.965 -4.388,-1.679 -4.402,-1.72 -1.735,-5.38 1.588,-2.18 1.982,-2.903 1.982,-3.65 0,-1.306 -0.586,-1.598 -4.436,-2.22 -3.216,-0.52 -3.924,-0.835 -3.924,-1.75 0,-0.174 0.588,-1.574 1.307,-3.113 1.406,-3.013 1.604,-4.22 0.808,-4.94 -0.428,-0.387 -1,-0.443 -4.067,-0.392 -3.208,0.054 -3.618,0.008 -4.063,-0.439 -0.486,-0.488 -0.48,-0.557 0.278,-3.725 0.931,-3.88 0.935,-3.975 0.17,-4.694 -0.777,-0.73 -1.262,-0.718 -4.826,0.121 -2.597,0.612 -3.027,0.653 -3.617,0.337 l -0.67,-0.36 0.185,-3.582 0.186,-3.58 -0.67,-0.67 c -0.369,-0.37 -0.891,-0.67 -1.163,-0.67 -0.27,0 -1.884,0.64 -3.583,1.421 -2.838,1.306 -3.143,1.393 -3.757,1.072 C 90.614,12.604 90.512,12.287 89.989,9.095 89.386,5.402 89.012,4.683 87.701,4.683 87.39,4.683 85.848,5.608 84.275,6.738 81.691,8.594 81.345,8.77 80.701,8.545 80.168,8.359 79.858,7.955 79.48,6.946 79.2,6.204 78.663,4.774 78.286,3.769 77.524,1.741 77.099,1.287 75.958,1.287 c -0.637,0 -1.213,0.458 -3.28,2.604 -3.25,3.375 -3.261,3.374 -5.65,-0.545 C 66.073,1.78 65.075,0.382 64.81,0.24 64.213,-0.08 63.51,-0.08 62.96,0.242 m 2.96,11.798 c 2.83,2.014 1.326,6.75 -2.144,6.75 -3.368,0 -5.064,-4.057 -2.66,-6.36 1.358,-1.3 3.304,-1.459 4.805,-0.39 m -3.558,12.507 c 1.855,0.705 2.616,0.282 6.852,-3.8 l 3.182,-3.07 1.347,0.18 c 4.225,0.56 12.627,4.25 17.455,7.666 4.436,3.14 10.332,9.534 12.845,13.93 l 0.537,0.942 -2.38,5.364 c -1.31,2.95 -2.382,5.673 -2.382,6.053 0,0.878 0.576,2.267 1.13,2.726 0.234,0.195 2.457,1.265 4.939,2.378 l 4.51,2.025 0.178,1.148 c 0.23,1.495 0.26,5.167 0.052,6.21 l -0.163,0.816 h -2.575 c -2.987,0 -2.756,-0.267 -2.918,3.396 -0.118,2.656 -0.76,4.124 -2.22,5.075 -2.377,1.551 -6.304,1.27 -7.97,-0.57 -0.255,-0.284 -0.752,-1.705 -1.105,-3.16 -1.03,-4.254 -2.413,-6.64 -5.193,-8.965 -0.878,-0.733 -1.595,-1.418 -1.595,-1.522 0,-0.102 0.965,-0.915 2.145,-1.803 4.298,-3.24 6.77,-7.012 7.04,-10.747 0.519,-7.126 -5.158,-13.767 -13.602,-15.92 -2.002,-0.51 -2.857,-0.526 -27.624,-0.526 -14.057,0 -25.56,-0.092 -25.56,-0.204 0,-0.263 3.125,-3.295 4.965,-4.816 5.054,-4.178 11.618,-7.465 18.417,-9.22 l 2.35,-0.61 3.34,3.387 c 1.839,1.863 3.64,3.5 4.003,3.637 M 20.3,46.34 c 1.539,1.008 2.17,3.54 1.26,5.062 -1.405,2.356 -4.966,2.455 -6.373,0.178 -2.046,-3.309 1.895,-7.349 5.113,-5.24 m 90.672,0.13 c 4.026,2.454 0.906,8.493 -3.404,6.586 -2.877,-1.273 -2.97,-5.206 -0.155,-6.64 1.174,-0.6 2.523,-0.579 3.56,0.053 M 32.163,61.5 v 15.02 h -13.28 l -0.526,-2.285 c -1.036,-4.5 -1.472,-9.156 -1.211,-12.969 l 0.182,-2.679 4.565,-2.047 c 2.864,-1.283 4.706,-2.262 4.943,-2.625 1.038,-1.584 0.94,-2.715 -0.518,-5.933 l -0.68,-1.502 h 6.523 V 61.5 M 70.39,47.132 c 2.843,0.74 4.345,2.245 4.349,4.355 0.002,1.55 -0.765,2.52 -2.67,3.38 -1.348,0.61 -1.562,0.625 -10.063,0.708 l -8.686,0.084 v -8.92 h 7.782 c 6.078,0 8.112,0.086 9.288,0.393 m -2.934,21.554 c 1.41,0.392 3.076,1.616 3.93,2.888 0.898,1.337 1.423,3.076 2.667,8.836 1.05,4.87 1.727,6.46 3.62,8.532 2.345,2.566 1.8,2.466 13.514,2.466 5.61,0 10.198,0.09 10.198,0.2 0,0.197 -3.863,4.764 -4.03,4.764 -0.048,0 -2.066,-0.422 -4.484,-0.939 -6.829,-1.458 -7.075,-1.287 -8.642,6.032 l -1.008,4.702 -0.91,0.448 c -1.518,0.75 -6.453,2.292 -9.01,2.82 -4.228,0.87 -8.828,1.162 -12.871,0.821 -6.893,-0.585 -16.02,-3.259 -16.377,-4.8 -0.075,-0.327 -0.535,-2.443 -1.018,-4.704 -0.485,-2.26 -1.074,-4.404 -1.31,-4.764 -1.13,-1.724 -2.318,-1.83 -7.547,-0.674 -1.98,0.44 -3.708,0.796 -3.84,0.796 -0.248,0 -3.923,-4.249 -3.923,-4.535 0,-0.09 8.728,-0.194 19.396,-0.23 l 19.395,-0.066 0.07,-6.89 c 0.05,-4.865 -0.018,-6.997 -0.23,-7.25 -0.234,-0.284 -1.485,-0.358 -6.011,-0.358 H 53.32 v -8.36 l 6.597,10e-4 c 3.626,0.002 7.02,0.12 7.539,0.264 M 37.57,100.02 c 3.084,1.88 1.605,6.804 -2.043,6.8 -3.74,0 -5.127,-4.88 -1.94,-6.826 1.055,-0.643 2.908,-0.63 3.983,0.026 m 56.48,0.206 c 1.512,1.108 2.015,3.413 1.079,4.95 -2.46,4.034 -8.612,0.827 -6.557,-3.419 1.01,-2.085 3.695,-2.837 5.478,-1.53"
     id="path2"
     style="mix-blend-mode:darken;fill:#28170b;fill-opacity:1;opacity:1" />
</svg>
